# xmcd CD database file
#
# Track frame offsets:
#	150
#	28310
#	81427
#	102330
#	139555
#	172522
#	189355
#	239205
#
# Disc length: 3549 seconds
#
# Revision: 0
# Processed by: cddbd v1.5.2PL0 Copyright (c) Steve Scherf et al.
# Submitted via: CDex 1.70beta2
#
DISCID=650ddb08
DTITLE=Avishai Cohen - After the Big Rain
DYEAR=2007
DGENRE=Jazz
TTITLE0=After the Big Rain
TTITLE1=Parto Forte
TTITLE2=Gbede Temin
TTITLE3=Meditation on Two Chords
TTITLE4=Afterthoughts (Mozartine)
TTITLE5=Miryama
TTITLE6=Arfican Daisy (La Suite African)
TTITLE7=After the Big Rain - Epilogue
EXTD=YEAR: 2007
EXTT0=
EXTT1=
EXTT2=
EXTT3=
EXTT4=
EXTT5=
EXTT6=
EXTT7=
PLAYORDER=
